<?xml version="1.0" encoding="UTF-8"?>
<!DOCTYPE svg PUBLIC "-//W3C//DTD SVG 1.1//EN" "http://www.w3.org/Graphics/SVG/1.1/DTD/svg11.dtd">
<!-- Creator: CorelDRAW 2017 -->
<svg xmlns="http://www.w3.org/2000/svg" xml:space="preserve" width="2.33333in" height="2.33333in" version="1.1" style="shape-rendering:geometricPrecision; text-rendering:geometricPrecision; image-rendering:optimizeQuality; fill-rule:evenodd; clip-rule:evenodd"
viewBox="0 0 2333 2333"
 xmlns:xlink="http://www.w3.org/1999/xlink">
 <defs>
  <style type="text/css">
   <![CDATA[
    .fil1 {fill:#F26113}
    .fil0 {fill:white;fill-rule:nonzero}
   ]]>
  </style>
 </defs>
 <g id="Layer_x0020_1">
  <metadata id="CorelCorpID_0Corel-Layer"/>
  <g id="_2930760844400">
   <g>
    <polygon class="fil0" points="137,777 137,1593 280,1593 280,777 "/>
    <path class="fil0" d="M618 947c0,-29 17,-47 50,-47 25,0 40,11 51,35l238 521c34,93 86,151 200,151 126,0 187,-71 187,-179l0 -652 -144 0 0 646c0,28 -18,46 -48,46 -27,0 -42,-15 -52,-34l-238 -521c-34,-93 -85,-151 -198,-151 -127,0 -187,71 -187,178l0 653 143 0 0 -646z"/>
   </g>
   <path class="fil1" d="M1148 2152c-361,0 -675,-197 -841,-490l-153 0c178,370 556,626 994,626 609,0 1103,-494 1103,-1102 0,-609 -494,-1102 -1103,-1102 -439,0 -817,256 -995,627l153 0c166,-293 481,-492 842,-492 534,0 967,433 967,967 0,534 -433,967 -967,967z"/>
  </g>
 </g>
</svg>
