<?xml version="1.0" standalone="no"?>
<!DOCTYPE svg PUBLIC "-//W3C//DTD SVG 20010904//EN"
 "http://www.w3.org/TR/2001/REC-SVG-20010904/DTD/svg10.dtd">
<svg version="1.0" xmlns="http://www.w3.org/2000/svg"
 width="500.000000pt" height="500.000000pt" viewBox="0 0 500.000000 500.000000"
 preserveAspectRatio="xMidYMid meet">

<g transform="translate(0.000000,500.000000) scale(0.100000,-0.100000)"
fill="#000000" stroke="none">
<path d="M1235 4670 c-178 -38 -320 -101 -459 -203 -185 -138 -325 -326 -403
-539 -54 -152 -64 -229 -70 -553 -6 -332 -2 -370 49 -416 32 -31 83 -45 123
-35 14 4 43 22 63 41 l37 33 7 334 c7 366 15 426 77 563 93 204 276 380 479
459 117 46 194 57 439 64 l232 7 31 30 c61 59 59 147 -6 204 l-35 31 -237 -1
c-192 0 -254 -4 -327 -19z"/>
<path d="M3122 4670 c-81 -51 -80 -179 3 -230 29 -18 49 -20 218 -20 311 0
440 -21 592 -97 187 -94 321 -233 410 -426 63 -137 67 -162 74 -507 6 -305 7
-316 28 -346 61 -85 179 -80 233 9 19 30 20 52 20 308 0 200 -4 300 -15 362
-79 456 -407 815 -852 934 -93 25 -113 27 -388 30 -279 4 -291 3 -323 -17z"/>
<path d="M1710 3183 c-63 -32 -71 -63 -68 -266 l3 -179 37 -34 c65 -59 150
-39 184 42 20 47 19 332 0 379 -26 62 -96 88 -156 58z"/>
<path d="M2551 3183 c-19 -10 -44 -31 -55 -46 -20 -27 -21 -44 -26 -402 -6
-425 0 -401 -91 -414 -67 -9 -94 -26 -115 -70 -22 -46 -12 -97 26 -136 29 -28
35 -30 108 -29 138 1 242 72 293 200 24 58 24 64 27 439 2 407 2 410 -48 446
-38 28 -80 32 -119 12z"/>
<path d="M3240 3183 c-63 -32 -71 -63 -68 -266 l3 -179 37 -34 c65 -59 150
-39 184 42 20 47 19 332 0 379 -26 62 -96 88 -156 58z"/>
<path d="M4487 1882 c-15 -9 -36 -35 -47 -58 -18 -36 -20 -62 -20 -263 0 -250
-10 -324 -65 -458 -86 -214 -275 -402 -485 -482 -111 -43 -213 -61 -347 -61
-139 0 -179 -9 -219 -51 -25 -27 -29 -38 -29 -89 0 -56 3 -62 38 -97 l37 -38
168 0 c217 0 337 25 519 106 213 95 436 314 546 534 39 79 84 222 101 320 22
126 23 543 1 585 -34 66 -133 92 -198 52z"/>
<path d="M380 1852 c-61 -30 -75 -69 -78 -220 -5 -176 12 -376 42 -487 120
-447 483 -776 936 -850 129 -20 519 -21 558 -1 57 30 77 63 77 126 0 48 -4 63
-25 85 -45 48 -53 49 -325 56 -245 6 -265 8 -350 33 -239 72 -427 230 -538
451 -74 149 -97 279 -97 558 0 191 -5 210 -70 246 -46 26 -84 27 -130 3z"/>
<path d="M1854 1826 c-57 -57 -45 -124 36 -192 149 -126 313 -192 529 -215
296 -31 613 72 775 251 35 39 38 46 33 88 -7 62 -49 102 -108 102 -47 0 -72
-11 -114 -51 -49 -46 -145 -98 -230 -126 -66 -21 -105 -26 -220 -30 -231 -8
-350 31 -539 177 -57 44 -116 42 -162 -4z"/>
</g>
</svg>
