<?xml version="1.0" encoding="UTF-8"?>
<svg version="1.1" xmlns="http://www.w3.org/2000/svg" width="500" height="500">
<path d="M0 0 C2.23941418 -0.02163135 4.47874268 -0.05579419 6.71777344 -0.10253906 C9.96270107 -0.16956035 13.20589388 -0.1969954 16.45141602 -0.21606445 C17.4464061 -0.24389511 18.44139618 -0.27172577 19.46653748 -0.30039978 C25.51336278 -0.28257284 28.7910559 0.6185444 33.15879822 4.88891602 C35.82896764 8.08844369 36.3955638 11.31406485 36.42407227 15.4050293 C35.03751012 20.10393433 33.23685208 23.3071457 29.42407227 26.4050293 C25.92121112 27.57264968 22.71986667 27.59648149 19.07250977 27.65112305 C17.56469329 27.68414509 16.05688092 27.71735492 14.54907227 27.75073242 C12.1978744 27.79745619 9.84668135 27.84171698 7.49536133 27.88183594 C-0.95159889 28.03273906 -9.32250839 28.34643833 -17.72045898 29.3112793 C-18.39263458 29.38708725 -19.06481018 29.4628952 -19.75735474 29.54100037 C-39.43097688 32.00100786 -55.89131476 41.39214974 -69.57592773 55.4050293 C-70.30166992 56.11014648 -71.02741211 56.81526367 -71.77514648 57.54174805 C-94.70713125 81.19458105 -93.88109615 113.73265459 -94.03222656 144.40820312 C-94.05381178 148.08836461 -94.09318255 151.76801333 -94.13452148 155.44799805 C-94.1346373 156.57505661 -94.13475311 157.70211517 -94.13487244 158.86332703 C-94.14821121 159.91244766 -94.16154999 160.9615683 -94.17529297 162.04248047 C-94.18289894 163.4190406 -94.18289894 163.4190406 -94.19065857 164.82341003 C-94.84496793 169.20781916 -96.86118993 171.77745464 -100.13842773 174.6550293 C-104.18168656 177.55788179 -106.5582049 177.81631805 -111.57592773 177.4050293 C-115.30836908 176.00059329 -118.03216924 174.13004062 -120.45092773 170.9050293 C-122.18338486 167.05512457 -122.70207787 163.78191534 -122.72119141 159.57080078 C-122.73076118 158.13165565 -122.73076118 158.13165565 -122.74052429 156.66343689 C-122.74163712 155.62812332 -122.74274994 154.59280975 -122.74389648 153.52612305 C-122.74722488 152.44484634 -122.75055328 151.36356964 -122.75398254 150.24952698 C-122.75904902 147.95216293 -122.76139096 145.65479151 -122.76123047 143.35742188 C-122.76338702 139.90766496 -122.78146157 136.45824396 -122.80053711 133.00854492 C-122.8887391 99.03221628 -117.70773702 66.84138276 -94.57592773 40.4050293 C-93.98682617 39.6728418 -93.39772461 38.9406543 -92.79077148 38.1862793 C-69.71515954 10.3583651 -34.73624632 0.25228438 0 0 Z " fill="#006DF8" transform="translate(152.575927734375,30.594970703125)"/>
<path d="M0 0 C1.12046722 -0.0038269 2.24093445 -0.00765381 3.39535522 -0.01159668 C5.77074072 -0.01431609 8.14615615 -0.00695298 10.52148438 0.00976562 C14.08795589 0.03089174 17.65234692 0.01011091 21.21875 -0.015625 C56.00618591 -0.058715 86.20734885 10.3292468 111.2734375 34.84375 C117.20327656 40.84474713 122.16694264 47.29419874 126.5234375 54.53125 C127.09553955 55.47411865 127.09553955 55.47411865 127.67919922 56.43603516 C138.81307858 75.14554378 143.81870162 95.4705913 143.859375 117.1796875 C143.8693602 119.06392929 143.8693602 119.06392929 143.87954712 120.98623657 C143.88960411 123.61987862 143.89436632 126.2535458 143.89404297 128.88720703 C143.89383824 132.24962248 143.92134854 135.61120731 143.95558739 138.97342491 C143.98321021 142.20881418 143.98200368 145.44419633 143.984375 148.6796875 C143.99874603 149.87975433 144.01311707 151.07982117 144.02792358 152.31625366 C143.9851726 160.11169632 143.14007452 163.64671394 137.8359375 169.34375 C134.17013065 171.22619135 130.63088786 171.76675306 126.5234375 171.53125 C122.21119554 170.05796964 118.7749675 167.53397 116.5234375 163.53125 C115.54682428 160.40175368 115.38873169 157.53562005 115.36572266 154.26635742 C115.35546051 153.21393356 115.34519836 152.1615097 115.33462524 151.07719421 C115.32732391 149.94183731 115.32002258 148.80648041 115.3125 147.63671875 C115.2844027 145.21158212 115.2557381 142.78645202 115.2265625 140.36132812 C115.18554516 136.5547728 115.14864403 132.74833538 115.12207031 128.94165039 C115.21052976 104.49474538 115.21052976 104.49474538 108.2734375 81.28125 C107.96825195 80.61706055 107.66306641 79.95287109 107.34863281 79.26855469 C97.08045787 57.45527863 80.04341923 42.03790381 57.5234375 33.53125 C45.3137385 29.45764537 33.26586421 28.51052183 20.47265625 28.35546875 C19.56422974 28.34342911 18.65580322 28.33138947 17.71984863 28.31898499 C13.9186025 28.27040669 10.1176961 28.2229561 6.31616211 28.20532227 C3.5136432 28.18984137 0.71234993 28.14968603 -2.08984375 28.10546875 C-2.94306717 28.10737717 -3.79629059 28.10928558 -4.67536926 28.11125183 C-10.06746836 28.00077943 -13.21269775 27.13692048 -17.4765625 23.53125 C-20.3990522 19.14751546 -21.0360865 15.75347401 -20.4765625 10.53125 C-19.00143288 6.35171607 -17.22620404 3.75299978 -13.45343018 1.35839844 C-9.19870484 -0.42183676 -4.53941102 -0.03449251 0 0 Z " fill="#006CF9" transform="translate(326.4765625,30.46875)"/>
<path d="M0 0 C4.0664509 2.1366098 6.19145478 4.15861685 8.09375 8.28125 C8.39062252 11.0985539 8.53472446 13.70388561 8.53515625 16.51953125 C8.54836411 17.31795944 8.56157196 18.11638763 8.57518005 18.93901062 C8.61592677 21.49062427 8.63764794 24.04188622 8.65625 26.59375 C8.9473124 56.93774051 13.47414745 83.16951696 35.4296875 105.67578125 C56.17456268 125.38005589 80.79528278 129.85936701 108.21875 129.84375 C111.24256835 129.8473751 114.26582005 129.85699719 117.28952026 129.88450623 C119.15152848 129.90112124 121.01372468 129.90430901 122.87576294 129.89149475 C129.44563713 129.9449793 134.29913516 130.92789013 139.46875 135.28125 C142.2476697 138.70145886 142.37972979 141.97347613 142.30859375 146.2890625 C141.84755641 150.56413604 139.65632932 152.78727791 136.53125 155.53125 C133.32043224 157.8364525 131.70741778 158.40833717 127.82202148 158.44238281 C126.93606796 158.45199036 126.05011444 158.4615979 125.13731384 158.47149658 C124.17289871 158.47574646 123.20848358 158.47999634 122.21484375 158.484375 C121.21477798 158.49007507 120.21471222 158.49577515 119.18434143 158.50164795 C117.0549526 158.51111645 114.92554899 158.51763924 112.79614258 158.52148438 C109.59623862 158.53105561 106.39701494 158.56200301 103.19726562 158.59375 C88.04244556 158.67312247 73.52042076 157.68510809 59.09375 152.65625 C58.35938721 152.40391602 57.62502441 152.15158203 56.8684082 151.89160156 C27.19187763 141.23150024 4.03071624 119.14256394 -9.4140625 90.7734375 C-17.85395819 71.0214303 -20.08679177 51.32116854 -20.14648438 30.06811523 C-20.15632218 27.95323211 -20.18754806 25.83927187 -20.21875 23.72460938 C-20.27427486 16.65684405 -20.20001931 10.64920399 -16.90625 4.28125 C-12.14610743 -0.359889 -6.54712808 -2.46858928 0 0 Z " fill="#006DF8" transform="translate(49.90625,313.71875)"/>
<path d="M0 0 C3.94278417 1.96360002 6.34989906 4.95288766 8 9 C8.26742554 11.24462891 8.26742554 11.24462891 8.29052734 13.7265625 C8.30328705 14.66274414 8.31604675 15.59892578 8.32919312 16.56347656 C8.33141876 17.5737793 8.33364441 18.58408203 8.3359375 19.625 C8.3459227 21.21006348 8.3459227 21.21006348 8.35610962 22.82714844 C8.36624288 25.07322453 8.37092643 27.31933076 8.37060547 29.56542969 C8.37491323 32.93218099 8.41104179 36.29754898 8.44921875 39.6640625 C8.60882543 69.85902388 1.20432623 97.86158963 -19 121 C-19.78375 121.91652344 -20.5675 122.83304687 -21.375 123.77734375 C-39.58764387 144.5226834 -63.193798 156.03885217 -90 161 C-90.93166992 161.1757959 -91.86333984 161.3515918 -92.82324219 161.53271484 C-98.70345758 162.39766506 -104.62942174 162.22665291 -110.5625 162.25 C-112.53379883 162.2809375 -112.53379883 162.2809375 -114.54492188 162.3125 C-116.44274414 162.32023437 -116.44274414 162.32023437 -118.37890625 162.328125 C-119.5294751 162.3374707 -120.68004395 162.34681641 -121.86547852 162.35644531 C-127.17349612 161.75283867 -130.55100037 158.94171387 -134 155 C-135.59121454 150.22635638 -135.79879085 145.84983145 -133.8125 141.25 C-130.74608092 137.44341079 -127.84624977 134.88627914 -123 134 C-121.10204787 133.89889886 -119.20130553 133.84545963 -117.30078125 133.82421875 C-92.38346626 133.35943052 -72.23342928 129.30800251 -52 114 C-51.01966797 113.29810547 -51.01966797 113.29810547 -50.01953125 112.58203125 C-33.68540578 99.97255197 -23.69773094 78.00488577 -21 58 C-20.84920083 54.4717453 -20.83934678 50.94516673 -20.82421875 47.4140625 C-20.80102455 45.32811486 -20.77690738 43.24217732 -20.75195312 41.15625 C-20.71685494 37.88892801 -20.6874876 34.6219798 -20.67407227 31.35449219 C-20.65854239 28.18639709 -20.61831059 25.01937242 -20.57421875 21.8515625 C-20.57612717 20.88360748 -20.57803558 19.91565247 -20.58000183 18.91836548 C-20.45360008 11.85893361 -19.14094333 6.04576322 -13.9375 1 C-9.27909339 -0.58584055 -4.85611802 -0.76900403 0 0 Z " fill="#006DF8" transform="translate(462,310)"/>
<path d="M0 0 C2.18557656 1.2046485 3.94204991 2.6185733 5.85546875 4.21875 C23.88057997 19.19042708 44.4624833 21.3866513 67 20 C81.27997824 18.3754635 94.2847533 11.88493011 105.109375 2.6015625 C108.54068201 -0.30512319 111.29624799 -0.39075606 115.671875 -0.35546875 C119.62769681 0.24852418 121.30658423 2.10457805 124 5 C125.25497957 8.7649387 125.52064444 11.03008618 125 15 C123.07655301 18.10233385 120.64560444 20.50297118 118 23 C117.3090625 23.66128906 116.618125 24.32257813 115.90625 25.00390625 C97.83118705 40.81958633 71.44256913 46.29319337 48 45 C24.57263382 43.27454046 2.23227865 35.75405477 -14 18 C-16.45917586 14.3112362 -16.81591937 11.2815571 -16 7 C-12.16345465 0.35379132 -7.3040567 -1.22519661 0 0 Z " fill="#006CF7" transform="translate(198,314)"/>
<path d="M0 0 C3.41884518 2.10156185 5.70120074 4.10360223 7 8 C7.1101637 10.31250116 7.1590818 12.62806091 7.17700195 14.94311523 C7.18685875 15.99750542 7.18685875 15.99750542 7.19691467 17.07319641 C7.21663428 19.40166337 7.22831286 21.73006558 7.23828125 24.05859375 C7.24235678 24.85727434 7.2464323 25.65595493 7.25063133 26.47883797 C7.27149544 30.71367254 7.28579055 34.94847476 7.29516602 39.18334961 C7.30617653 43.5306851 7.34051248 47.8775011 7.38033772 52.2246542 C7.40666375 55.58871827 7.41487235 58.95266216 7.41844749 62.31682014 C7.42327948 63.91739435 7.43479516 65.51796444 7.45348549 67.11843681 C7.58179102 78.84273942 6.87682574 90.59156926 -1 100 C-8.38535507 107.46615764 -15.44171345 110.89129898 -26 111.25 C-31.07743771 111.19718861 -33.72547805 109.93023947 -37.57421875 106.6640625 C-40.18379758 103.61836228 -40.10619508 99.88275773 -40 96 C-38.83351971 92.50055912 -37.76155781 90.66636308 -35 88.25 C-31.20319998 86.66799999 -27.49807795 86.20207413 -23.42578125 85.72265625 C-20.92560465 85.25148322 -20.92560465 85.25148322 -19.86534119 83.37788391 C-18.72380528 80.24104042 -18.74052315 77.57043701 -18.72875977 74.23120117 C-18.72091965 73.22306618 -18.72091965 73.22306618 -18.71292114 72.19456482 C-18.70270099 70.73884089 -18.6969042 69.28308062 -18.69503975 67.82732201 C-18.69136776 65.51876774 -18.67461761 63.21063989 -18.65428162 60.9021759 C-18.59895713 54.34005689 -18.56823735 47.77787486 -18.54370117 41.21557617 C-18.52777338 37.19727355 -18.49749816 33.17927279 -18.45893669 29.16112709 C-18.44733046 27.63463879 -18.44135673 26.10809637 -18.44125557 24.58156395 C-18.44106222 22.43971884 -18.422702 20.29869855 -18.40063477 18.15698242 C-18.39302879 16.33308235 -18.39302879 16.33308235 -18.38526917 14.47233582 C-17.8059731 9.25128346 -16.39210601 5.32250071 -12.5 1.625 C-8.01581329 -1.28972136 -5.13933754 -1.21950382 0 0 Z " fill="#006CF7" transform="translate(265,181)"/>
<path d="M0 0 C4.01278927 2.49684666 5.60840135 4.53864181 7 9 C7.36949781 13.71085081 7.32939109 18.42341908 7.31567383 23.14672852 C7.31251443 25.42708164 7.33599538 27.70613516 7.36132812 29.98632812 C7.36360157 31.44791504 7.3643044 32.90950542 7.36328125 34.37109375 C7.36626221 35.69036865 7.36924316 37.00964355 7.37231445 38.36889648 C6.85550799 43.4091998 5.22355989 46.67156355 1.8125 50.375 C-1.85432467 52.49360981 -4.92968538 53.03873814 -9 52 C-12.86840098 49.63143971 -15.55279775 47.34160674 -17 43 C-17.12041376 40.48426457 -17.18804884 37.99702716 -17.203125 35.48046875 C-17.20882507 34.74427811 -17.21452515 34.00808746 -17.22039795 33.24958801 C-17.22983756 31.69204134 -17.23637781 30.1344748 -17.24023438 28.5769043 C-17.24992231 26.20650914 -17.28094675 23.83698797 -17.3125 21.46679688 C-17.31903241 19.95052596 -17.32428195 18.43424887 -17.328125 16.91796875 C-17.3404718 16.21463913 -17.3528186 15.51130951 -17.36553955 14.78666687 C-17.34464476 10.11790823 -16.43497164 6.97368699 -14 3 C-9.46888595 -1.10632211 -5.88607939 -1.31929366 0 0 Z " fill="#006CF7" transform="translate(334,181)"/>
<path d="M0 0 C4.01278927 2.49684666 5.60840135 4.53864181 7 9 C7.36949781 13.71085081 7.32939109 18.42341908 7.31567383 23.14672852 C7.31251443 25.42708164 7.33599538 27.70613516 7.36132812 29.98632812 C7.36360157 31.44791504 7.3643044 32.90950542 7.36328125 34.37109375 C7.36626221 35.69036865 7.36924316 37.00964355 7.37231445 38.36889648 C6.85550799 43.4091998 5.22355989 46.67156355 1.8125 50.375 C-1.85432467 52.49360981 -4.92968538 53.03873814 -9 52 C-12.86840098 49.63143971 -15.55279775 47.34160674 -17 43 C-17.12041376 40.48426457 -17.18804884 37.99702716 -17.203125 35.48046875 C-17.20882507 34.74427811 -17.21452515 34.00808746 -17.22039795 33.24958801 C-17.22983756 31.69204134 -17.23637781 30.1344748 -17.24023438 28.5769043 C-17.24992231 26.20650914 -17.28094675 23.83698797 -17.3125 21.46679688 C-17.31903241 19.95052596 -17.32428195 18.43424887 -17.328125 16.91796875 C-17.3404718 16.21463913 -17.3528186 15.51130951 -17.36553955 14.78666687 C-17.34464476 10.11790823 -16.43497164 6.97368699 -14 3 C-9.46888595 -1.10632211 -5.88607939 -1.31929366 0 0 Z " fill="#006CF7" transform="translate(181,181)"/>
<path d="M0 0 C4.0664509 2.1366098 6.19145478 4.15861685 8.09375 8.28125 C8.39062252 11.0985539 8.53472446 13.70388561 8.53515625 16.51953125 C8.54836411 17.31795944 8.56157196 18.11638763 8.57518005 18.93901062 C8.61592677 21.49062427 8.63764794 24.04188622 8.65625 26.59375 C8.9473124 56.93774051 13.47414745 83.16951696 35.4296875 105.67578125 C56.17456268 125.38005589 80.79528278 129.85936701 108.21875 129.84375 C111.24256835 129.8473751 114.26582005 129.85699719 117.28952026 129.88450623 C119.15152848 129.90112124 121.01372468 129.90430901 122.87576294 129.89149475 C129.44563713 129.9449793 134.29913516 130.92789013 139.46875 135.28125 C142.77113071 139.34571856 142.17520386 143.31256424 142.09375 148.28125 C141.76375 148.28125 141.43375 148.28125 141.09375 148.28125 C140.76375 145.31125 140.43375 142.34125 140.09375 139.28125 C139.10375 138.95125 138.11375 138.62125 137.09375 138.28125 C137.09375 137.62125 137.09375 136.96125 137.09375 136.28125 C128.3886704 132.46899148 119.71287843 133.09636584 110.44152832 133.34194946 C95.06351944 133.71364524 80.7366329 133.54988185 66.09375 128.28125 C64.93101563 127.88550781 63.76828125 127.48976563 62.5703125 127.08203125 C55.50421925 124.40332336 49.30902773 120.53842299 43.09375 116.28125 C42.35382813 115.79011719 41.61390625 115.29898438 40.8515625 114.79296875 C39.2221129 113.68376511 37.6496829 112.49142003 36.09375 111.28125 C36.09375 110.62125 36.09375 109.96125 36.09375 109.28125 C35.10375 108.95125 34.11375 108.62125 33.09375 108.28125 C33.09375 107.62125 33.09375 106.96125 33.09375 106.28125 C32.10375 105.95125 31.11375 105.62125 30.09375 105.28125 C30.09375 104.62125 30.09375 103.96125 30.09375 103.28125 C29.43375 103.28125 28.77375 103.28125 28.09375 103.28125 C28.09375 102.29125 28.09375 101.30125 28.09375 100.28125 C27.10375 99.95125 26.11375 99.62125 25.09375 99.28125 C24.40625 97.21875 24.40625 97.21875 24.09375 95.28125 C23.43375 95.28125 22.77375 95.28125 22.09375 95.28125 C9.48531762 72.78543582 6.82263293 52.41846297 6.63745117 27.01489258 C6.61583 24.51610282 6.57648774 22.01806132 6.53515625 19.51953125 C6.53504044 18.76432693 6.53492462 18.00912262 6.5348053 17.23103333 C6.4503036 12.74095935 5.8291916 9.87244152 3.09375 6.28125 C-0.02322493 3.69317353 -3.27163089 2.36047225 -7.32421875 2.1640625 C-9.90694315 2.49269627 -11.62128027 3.03727433 -13.90625 4.28125 C-18.31693258 11.08011596 -17.33102181 20.36258532 -17.21875 28.09375 C-17.2128183 28.7789975 -17.2068866 29.464245 -17.20077515 30.17025757 C-16.94526022 59.27480643 -12.63562355 86.35686369 5.09375 110.28125 C5.72023438 111.13074219 6.34671875 111.98023438 6.9921875 112.85546875 C12.1448166 119.55388658 18.03166448 125.41974819 24.09375 131.28125 C20.22790511 131.28125 19.08914637 129.71697856 16.41040039 127.1171875 C15.81090576 126.51132812 15.21141113 125.90546875 14.59375 125.28125 C13.97298584 124.65476562 13.35222168 124.02828125 12.71264648 123.3828125 C-11.99349906 97.73581233 -20.04890996 64.80867138 -20.14648438 30.06811523 C-20.15632218 27.95323211 -20.18754806 25.83927187 -20.21875 23.72460938 C-20.27427486 16.65684405 -20.20001931 10.64920399 -16.90625 4.28125 C-12.14610743 -0.359889 -6.54712808 -2.46858928 0 0 Z " fill="#0055FF" transform="translate(49.90625,313.71875)"/>
<path d="M0 0 C2.23941418 -0.02163135 4.47874268 -0.05579419 6.71777344 -0.10253906 C9.96270107 -0.16956035 13.20589388 -0.1969954 16.45141602 -0.21606445 C17.4464061 -0.24389511 18.44139618 -0.27172577 19.46653748 -0.30039978 C25.50443647 -0.28259916 28.79242239 0.61875644 33.1690979 4.86488342 C34.85280222 6.93118082 35.50240606 8.6461438 35.86157227 11.2800293 C36.04526367 12.45178711 36.04526367 12.45178711 36.23266602 13.6472168 C36.32741211 14.51733398 36.32741211 14.51733398 36.42407227 15.4050293 C35.76407227 15.4050293 35.10407227 15.4050293 34.42407227 15.4050293 C34.09407227 13.0950293 33.76407227 10.7850293 33.42407227 8.4050293 C32.43407227 8.0750293 31.44407227 7.7450293 30.42407227 7.4050293 C30.42407227 6.7450293 30.42407227 6.0850293 30.42407227 5.4050293 C24.90609623 3.5580273 20.02007968 3.0847751 14.22094727 3.0690918 C13.34367981 3.062435 12.46641235 3.0557782 11.56256104 3.04891968 C9.70684894 3.03882915 7.85110083 3.03410154 5.99536133 3.03442383 C3.22355048 3.03010637 0.45340855 2.99390539 -2.31811523 2.95581055 C-17.82338146 2.85688385 -32.78772877 4.98075727 -47.32592773 10.5925293 C-48.10194336 10.88659668 -48.87795898 11.18066406 -49.67749023 11.48364258 C-64.28902069 17.25340061 -76.54531861 26.28444783 -87.57592773 37.4050293 C-88.12635742 37.89745117 -88.67678711 38.38987305 -89.24389648 38.8972168 C-108.85191562 56.74101827 -118.01367158 86.49986558 -119.47692871 112.12435913 C-119.82655205 120.17873666 -119.80218142 128.24814253 -119.81616211 136.30859375 C-119.825955 139.72704625 -119.85710073 143.14491808 -119.88842773 146.56323242 C-119.89495168 148.75658828 -119.90020453 150.94994836 -119.90405273 153.14331055 C-119.91639954 154.15492752 -119.92874634 155.16654449 -119.94146729 156.20881653 C-119.91968583 163.16525041 -118.70117269 168.15453939 -115.57592773 174.4050293 C-117.38842773 173.9050293 -117.38842773 173.9050293 -119.57592773 172.4050293 C-122.67591822 165.89509617 -123.00399865 160.2735904 -122.93920898 153.13549805 C-122.93970749 152.05988113 -122.94020599 150.98426422 -122.9407196 149.87605286 C-122.93838656 147.60257112 -122.9287037 145.32908643 -122.91210938 143.05566406 C-122.88876106 139.64127419 -122.891525 136.22768065 -122.89819336 132.81323242 C-122.85548462 98.92500237 -117.64182958 66.76605998 -94.57592773 40.4050293 C-93.98682617 39.6728418 -93.39772461 38.9406543 -92.79077148 38.1862793 C-69.71515954 10.3583651 -34.73624632 0.25228438 0 0 Z " fill="#0055FF" transform="translate(152.575927734375,30.594970703125)"/>
<path d="M0 0 C3.9356539 1.96004898 6.3710903 4.94898042 8 9 C8.24050903 11.37921143 8.24050903 11.37921143 8.22705078 14.04394531 C8.22682419 15.54504852 8.22682419 15.54504852 8.22659302 17.07647705 C8.21627045 18.14952087 8.20594788 19.2225647 8.1953125 20.328125 C8.1924826 21.43226746 8.18965271 22.53640991 8.18673706 23.67401123 C8.17554489 27.1994512 8.15044175 30.72463685 8.125 34.25 C8.11496897 36.64062133 8.10584333 39.03124664 8.09765625 41.421875 C8.0756087 47.28133673 8.04214053 53.14065019 8 59 C7.67 59 7.34 59 7 59 C6.99191315 58.42450409 6.98382629 57.84900818 6.97549438 57.256073 C6.88927927 51.25350255 6.78976854 45.25125589 6.68261719 39.24902344 C6.64439012 37.01047209 6.60952639 34.77186063 6.578125 32.53320312 C6.53233852 29.31097974 6.47436586 26.08916793 6.4140625 22.8671875 C6.39673569 21.37153763 6.39673569 21.37153763 6.37905884 19.84567261 C6.27464082 14.90309637 6.11301524 10.5706145 4 6 C0.32271635 3.79362981 -3.7521052 3.22357341 -8 3 C-11.7310037 4.21975121 -13.46897302 5.20145432 -15.64868164 8.47924805 C-17.45014968 13.17282899 -17.40361086 17.28622478 -17.37109375 22.26953125 C-17.38850039 24.31445459 -17.40608446 26.35937643 -17.42382812 28.40429688 C-17.43381402 31.5917473 -17.4375181 34.77908746 -17.43579102 37.96655273 C-17.46886266 66.18989676 -23.71113667 89.49755411 -43.51171875 110.59765625 C-61.12082422 127.59859795 -84.08542657 137.22848041 -108.64819336 136.98535156 C-110.38118642 136.95422661 -112.11398681 136.90629631 -113.84594727 136.83886719 C-119.63025335 136.69389999 -123.73067271 137.54955812 -129 140 C-131.58612706 142.90939294 -131.95987691 144.62551784 -132.375 148.5 C-131.97249843 152.25668134 -131.20192131 153.98255228 -129 157 C-128.1646875 158.1446875 -128.1646875 158.1446875 -127.3125 159.3125 C-126.879375 159.869375 -126.44625 160.42625 -126 161 C-129.37082558 159.55536047 -131.58037292 157.75336875 -134 155 C-135.59121454 150.22635638 -135.79879085 145.84983145 -133.8125 141.25 C-130.74608092 137.44341079 -127.84624977 134.88627914 -123 134 C-121.10204787 133.89889886 -119.20130553 133.84545963 -117.30078125 133.82421875 C-92.38346626 133.35943052 -72.23342928 129.30800251 -52 114 C-51.01966797 113.29810547 -51.01966797 113.29810547 -50.01953125 112.58203125 C-33.68540578 99.97255197 -23.69773094 78.00488577 -21 58 C-20.84920083 54.4717453 -20.83934678 50.94516673 -20.82421875 47.4140625 C-20.80102455 45.32811486 -20.77690738 43.24217732 -20.75195312 41.15625 C-20.71685494 37.88892801 -20.6874876 34.6219798 -20.67407227 31.35449219 C-20.65854239 28.18639709 -20.61831059 25.01937242 -20.57421875 21.8515625 C-20.57612717 20.88360748 -20.57803558 19.91565247 -20.58000183 18.91836548 C-20.45360008 11.85893361 -19.14094333 6.04576322 -13.9375 1 C-9.27909339 -0.58584055 -4.85611802 -0.76900403 0 0 Z " fill="#0055FF" transform="translate(462,310)"/>
<path d="M0 0 C1.12046722 -0.0038269 2.24093445 -0.00765381 3.39535522 -0.01159668 C5.77074072 -0.01431609 8.14615615 -0.00695298 10.52148438 0.00976562 C14.08795589 0.03089174 17.65234692 0.01011091 21.21875 -0.015625 C56.00618591 -0.058715 86.20734885 10.3292468 111.2734375 34.84375 C117.20327656 40.84474713 122.16694264 47.29419874 126.5234375 54.53125 C127.09553955 55.47411865 127.09553955 55.47411865 127.67919922 56.43603516 C138.85568134 75.21713398 143.90522363 95.59122106 143.71875 117.390625 C143.7159201 118.66101624 143.71309021 119.93140747 143.71017456 121.24029541 C143.70095734 124.57425991 143.68307423 127.90793589 143.6607666 131.24182129 C143.64009526 134.66118921 143.63112793 138.08058725 143.62109375 141.5 C143.59917318 148.17716111 143.56580196 154.85418895 143.5234375 161.53125 C143.1934375 161.53125 142.8634375 161.53125 142.5234375 161.53125 C142.51796906 160.56430206 142.51796906 160.56430206 142.51239014 159.57781982 C142.47001111 152.76198481 142.40029548 145.94678907 142.31591797 139.13134766 C142.28799346 136.60048878 142.26663995 134.06954732 142.25244141 131.53857422 C142.11377069 108.19566978 139.90985698 86.74549516 129.1484375 65.71875 C127.5234375 62.53125 127.5234375 62.53125 127.5234375 59.53125 C126.8634375 59.53125 126.2034375 59.53125 125.5234375 59.53125 C121.5234375 52.78125 121.5234375 52.78125 121.5234375 50.53125 C120.8634375 50.53125 120.2034375 50.53125 119.5234375 50.53125 C119.5234375 49.54125 119.5234375 48.55125 119.5234375 47.53125 C118.5334375 47.20125 117.5434375 46.87125 116.5234375 46.53125 C116.19010417 45.19791667 115.85677083 43.86458333 115.5234375 42.53125 C114.5334375 42.20125 113.5434375 41.87125 112.5234375 41.53125 C112.5234375 40.87125 112.5234375 40.21125 112.5234375 39.53125 C111.5334375 39.20125 110.5434375 38.87125 109.5234375 38.53125 C109.5234375 37.87125 109.5234375 37.21125 109.5234375 36.53125 C108.5334375 36.20125 107.5434375 35.87125 106.5234375 35.53125 C106.5234375 34.87125 106.5234375 34.21125 106.5234375 33.53125 C105.0384375 33.03625 105.0384375 33.03625 103.5234375 32.53125 C103.5234375 31.87125 103.5234375 31.21125 103.5234375 30.53125 C102.99878906 30.29535156 102.47414063 30.05945313 101.93359375 29.81640625 C99.4149735 28.47341425 97.13541263 26.89887177 94.8046875 25.25634766 C81.35076728 15.86069415 66.70564373 8.67326791 50.5234375 5.53125 C49.28823364 5.26852295 49.28823364 5.26852295 48.02807617 5.00048828 C37.67113518 3.06760352 27.29295365 3.22851914 16.79174805 3.27050781 C13.56865988 3.28130789 10.346119 3.27052197 7.12304688 3.2578125 C5.05989461 3.25913282 2.99674269 3.26169257 0.93359375 3.265625 C-0.50088356 3.25955231 -0.50088356 3.25955231 -1.96434021 3.25335693 C-6.81317472 3.28737641 -10.9985499 3.43185945 -15.4765625 5.53125 C-18.16402619 10.32194614 -17.65074235 15.3231942 -16.4765625 20.53125 C-15.85304799 21.88530017 -15.19700388 23.22618815 -14.4765625 24.53125 C-17.4765625 23.53125 -17.4765625 23.53125 -19.1640625 20.90625 C-21.09545997 15.93979937 -21.1241974 12.36621556 -19.3515625 7.34375 C-14.31954546 -0.20427556 -8.43383375 -0.0640841 0 0 Z " fill="#0055FF" transform="translate(326.4765625,30.46875)"/>
<path d="M0 0 C2.18557656 1.2046485 3.94204991 2.6185733 5.85546875 4.21875 C23.88057997 19.19042708 44.4624833 21.3866513 67 20 C81.27997824 18.3754635 94.2847533 11.88493011 105.109375 2.6015625 C108.54068201 -0.30512319 111.29624799 -0.39075606 115.671875 -0.35546875 C119.62769681 0.24852418 121.30658423 2.10457805 124 5 C125.1577506 8.47325181 125.06866652 11.36067448 125 15 C123.72755917 12.7096065 122.99890579 10.99234052 122.625 8.375 C122.23982981 5.90515054 122.23982981 5.90515054 120.3125 4.75 C115.64794364 3.23717091 112.62099092 2.43755549 108.0625 4.5625 C105.30264706 6.07496178 103.05864503 7.74610349 100.75 9.875 C90.17357154 19.28683297 73.95181024 23.47152234 60 24 C59.37931641 24.03109863 58.75863281 24.06219727 58.11914062 24.09423828 C39.79991584 24.92807308 22.16410581 20.78984452 7 10 C7 9.34 7 8.68 7 8 C5.67741528 7.31225595 4.34013497 6.65288627 3 6 C1.906875 5.4225 0.81375 4.845 -0.3125 4.25 C-4.76171686 2.74179089 -6.73484794 3.16013048 -11 5 C-13.49455917 8.74183875 -13.37606522 10.56243036 -13 15 C-11.61785878 18.35161246 -11.61785878 18.35161246 -10 21 C-13 20 -13 20 -14.6875 17.9375 C-16.34833914 14.22038383 -16.85178181 10.96465715 -16 7 C-12.13796658 0.36302405 -7.32136292 -1.22809959 0 0 Z " fill="#0055FF" transform="translate(198,314)"/>
<path d="M0 0 C3.41884518 2.10156185 5.70120074 4.10360223 7 8 C7.09014813 10.37644017 7.11756299 12.75539895 7.11352539 15.13354492 C7.11367142 15.85574722 7.11381744 16.57794952 7.1139679 17.32203674 C7.11327145 19.70821134 7.1054916 22.09430779 7.09765625 24.48046875 C7.09579112 26.1352789 7.09436766 27.79008961 7.09336853 29.44490051 C7.08955085 33.79981003 7.07972695 38.15468618 7.06866455 42.50958252 C7.05843433 46.95364938 7.05386745 51.39772163 7.04882812 55.84179688 C7.03810402 64.56121323 7.02103657 73.28060246 7 82 C6.67 82 6.34 82 6 82 C5.98969254 81.12160965 5.97938507 80.2432193 5.96876526 79.33821106 C5.87073038 71.0545145 5.76820743 62.7708882 5.66066074 54.48730946 C5.60552971 50.22878866 5.55212565 45.97026089 5.50268555 41.71166992 C5.45489685 37.60082356 5.40254925 33.49005807 5.34705925 29.3793087 C5.32670129 27.81207993 5.30797761 26.24482904 5.29092598 24.67756081 C5.2667362 22.48002775 5.23670242 20.28264561 5.20532227 18.08520508 C5.18200584 16.20989861 5.18200584 16.20989861 5.15821838 14.29670715 C5.01866041 11.38881638 4.79694056 8.79765861 4 6 C2.11629529 4.6830333 2.11629529 4.6830333 0 4 C-0.66 3.67 -1.32 3.34 -2 3 C-7.37667377 2.64546077 -7.37667377 2.64546077 -12 5 C-14.49012118 9.92549183 -15.37528797 13.5456281 -15.38476562 19.14111328 C-15.3901384 19.81685394 -15.39551117 20.4925946 -15.40104675 21.18881226 C-15.41076358 22.64284549 -15.41378751 24.09693629 -15.41069031 25.55099869 C-15.40618184 27.85514944 -15.42029469 30.15854449 -15.43908691 32.46261597 C-15.48193606 38.1801584 -15.49311856 43.8976816 -15.50531006 49.61535645 C-15.51685076 54.45888308 -15.54043466 59.30206176 -15.58000183 64.14544296 C-15.59354249 66.41059887 -15.5894081 68.67527993 -15.58459473 70.94046021 C-15.59393664 72.33287152 -15.60410579 73.7252776 -15.61523438 75.11767578 C-15.61728882 76.32900177 -15.61934326 77.54032776 -15.62145996 78.7883606 C-16.03919476 82.33253929 -16.82958655 84.18961605 -19 87 C-22.44570895 88.82037454 -25.32544529 89.90741406 -29.1875 90.4375 C-32.74869875 91.14973975 -33.90276109 92.04833043 -36 95 C-37.07379562 98.93725059 -37.46323396 101.02941456 -35.6875 104.75 C-35.130625 105.4925 -34.57375 106.235 -34 107 C-33.34 107.99 -32.68 108.98 -32 110 C-34.89772842 108.70101829 -36.95590586 107.44390319 -39 105 C-40.3099083 100.6474566 -40.30741676 96.92225029 -38.875 92.625 C-36.14830841 88.80763177 -33.96229773 87.34929468 -29.30078125 86.51953125 C-27.34723124 86.22075301 -25.38849258 85.95371969 -23.42578125 85.72265625 C-20.92560465 85.25148322 -20.92560465 85.25148322 -19.86534119 83.37788391 C-18.72380528 80.24104042 -18.74052315 77.57043701 -18.72875977 74.23120117 C-18.72091965 73.22306618 -18.72091965 73.22306618 -18.71292114 72.19456482 C-18.70270099 70.73884089 -18.6969042 69.28308062 -18.69503975 67.82732201 C-18.69136776 65.51876774 -18.67461761 63.21063989 -18.65428162 60.9021759 C-18.59895713 54.34005689 -18.56823735 47.77787486 -18.54370117 41.21557617 C-18.52777338 37.19727355 -18.49749816 33.17927279 -18.45893669 29.16112709 C-18.44733046 27.63463879 -18.44135673 26.10809637 -18.44125557 24.58156395 C-18.44106222 22.43971884 -18.422702 20.29869855 -18.40063477 18.15698242 C-18.39302879 16.33308235 -18.39302879 16.33308235 -18.38526917 14.47233582 C-17.8059731 9.25128346 -16.39210601 5.32250071 -12.5 1.625 C-8.01581329 -1.28972136 -5.13933754 -1.21950382 0 0 Z " fill="#0055FF" transform="translate(265,181)"/>
<path d="M0 0 C4.00947571 2.49478489 5.62393094 4.53449088 7 9 C7.16464931 11.60836374 7.23392915 14.10319498 7.1953125 16.70703125 C7.1924826 17.43242599 7.18965271 18.15782074 7.18673706 18.90519714 C7.17559799 21.20780368 7.15050566 23.51001227 7.125 25.8125 C7.11496206 27.37955165 7.10583763 28.94660943 7.09765625 30.51367188 C7.0756793 34.34259978 7.04119339 38.17123256 7 42 C6.67 42 6.34 42 6 42 C5.98541748 41.12263184 5.97083496 40.24526367 5.95581055 39.34130859 C5.8945032 36.06450679 5.82030667 32.78851056 5.73754883 29.51220703 C5.70443709 28.0982551 5.67636284 26.68417536 5.65356445 25.27001953 C5.61976225 23.22894177 5.56744036 21.18902072 5.51171875 19.1484375 C5.48553467 17.92302246 5.45935059 16.69760742 5.43237305 15.43505859 C4.8565264 10.86015044 3.40233485 7.45069123 0.1875 4.125 C-2.71092817 2.6343798 -4.77635931 2.73136328 -8 3 C-8.7425 3.04125 -9.485 3.0825 -10.25 3.125 C-12.29020913 3.90830685 -12.29020913 3.90830685 -13.09057617 6.57788086 C-14.6348406 12.38887534 -14.33306725 18.30471394 -14.31567383 24.27709961 C-14.31250408 26.55956364 -14.33604283 28.84074177 -14.36132812 31.12304688 C-14.36360058 32.58333171 -14.36430487 34.04362001 -14.36328125 35.50390625 C-14.36626221 36.82205322 -14.36924316 38.1402002 -14.37231445 39.49829102 C-13.97692848 43.2169933 -13.16316092 45.00427097 -11 48 C-10.34 48.99 -9.68 49.98 -9 51 C-11.87793751 49.70989008 -13.96183917 48.42638194 -16 46 C-17.18585363 42.44243912 -17.18093271 39.18487196 -17.203125 35.48046875 C-17.20882507 34.74427811 -17.21452515 34.00808746 -17.22039795 33.24958801 C-17.22983756 31.69204134 -17.23637781 30.1344748 -17.24023438 28.5769043 C-17.24992231 26.20650914 -17.28094675 23.83698797 -17.3125 21.46679688 C-17.31903241 19.95052596 -17.32428195 18.43424887 -17.328125 16.91796875 C-17.3404718 16.21463913 -17.3528186 15.51130951 -17.36553955 14.78666687 C-17.34464476 10.11790823 -16.43497164 6.97368699 -14 3 C-9.46888595 -1.10632211 -5.88607939 -1.31929366 0 0 Z " fill="#0055FF" transform="translate(181,181)"/>
<path d="M0 0 C4.00947571 2.49478489 5.62393094 4.53449088 7 9 C7.16464931 11.60836374 7.23392915 14.10319498 7.1953125 16.70703125 C7.1924826 17.43242599 7.18965271 18.15782074 7.18673706 18.90519714 C7.17559799 21.20780368 7.15050566 23.51001227 7.125 25.8125 C7.11496206 27.37955165 7.10583763 28.94660943 7.09765625 30.51367188 C7.0756793 34.34259978 7.04119339 38.17123256 7 42 C6.67 42 6.34 42 6 42 C5.98541748 41.12263184 5.97083496 40.24526367 5.95581055 39.34130859 C5.8945032 36.06450679 5.82030667 32.78851056 5.73754883 29.51220703 C5.70443709 28.0982551 5.67636284 26.68417536 5.65356445 25.27001953 C5.61976225 23.22894177 5.56744036 21.18902072 5.51171875 19.1484375 C5.48553467 17.92302246 5.45935059 16.69760742 5.43237305 15.43505859 C4.8565264 10.86015044 3.40233485 7.45069123 0.1875 4.125 C-2.71092817 2.6343798 -4.77635931 2.73136328 -8 3 C-8.7425 3.04125 -9.485 3.0825 -10.25 3.125 C-12.29020913 3.90830685 -12.29020913 3.90830685 -13.09057617 6.57788086 C-14.6348406 12.38887534 -14.33306725 18.30471394 -14.31567383 24.27709961 C-14.31250408 26.55956364 -14.33604283 28.84074177 -14.36132812 31.12304688 C-14.36360058 32.58333171 -14.36430487 34.04362001 -14.36328125 35.50390625 C-14.36626221 36.82205322 -14.36924316 38.1402002 -14.37231445 39.49829102 C-13.97692848 43.2169933 -13.16316092 45.00427097 -11 48 C-10.34 48.99 -9.68 49.98 -9 51 C-11.87793751 49.70989008 -13.96183917 48.42638194 -16 46 C-17.18585363 42.44243912 -17.18093271 39.18487196 -17.203125 35.48046875 C-17.20882507 34.74427811 -17.21452515 34.00808746 -17.22039795 33.24958801 C-17.22983756 31.69204134 -17.23637781 30.1344748 -17.24023438 28.5769043 C-17.24992231 26.20650914 -17.28094675 23.83698797 -17.3125 21.46679688 C-17.31903241 19.95052596 -17.32428195 18.43424887 -17.328125 16.91796875 C-17.3404718 16.21463913 -17.3528186 15.51130951 -17.36553955 14.78666687 C-17.34464476 10.11790823 -16.43497164 6.97368699 -14 3 C-9.46888595 -1.10632211 -5.88607939 -1.31929366 0 0 Z " fill="#0055FF" transform="translate(334,181)"/>
</svg>
