<svg width="70" height="51" viewBox="0 0 70 51" fill="none" xmlns="http://www.w3.org/2000/svg">
<g clip-path="url(#clip0_56_270)">
<path d="M0 21.7578V29.2942H1.31237V21.7578H0ZM4.44387 23.3301C4.44387 23.0572 4.59979 22.9013 4.89865 22.9013C5.13254 22.9013 5.26248 23.0052 5.36643 23.2261L7.56237 28.0338C7.87422 28.8914 8.35499 29.4241 9.40749 29.4241C10.5639 29.4241 11.1357 28.7615 11.1357 27.7739V21.7578H9.8103V27.722C9.8103 27.9818 9.64138 28.1507 9.36851 28.1507C9.12163 28.1507 8.97869 28.0208 8.88774 27.8389L6.69179 23.0312C6.37994 22.1736 5.91216 21.6409 4.85967 21.6409C3.69023 21.6409 3.1315 22.3036 3.1315 23.2781V29.3072H4.44387V23.3431V23.3301ZM15.6575 21.7578C13.6565 21.7578 12.8768 22.8493 12.8768 24.3566V29.2942H14.1892V26.3186H18.724V25.0712H14.1892V24.3566C14.1892 23.6549 14.54 23.0832 15.7355 23.0832H18.776V21.7708H15.6575V21.7578ZM20.3482 21.7578V29.2942H21.6606V21.7578H20.3482ZM24.7921 23.3301C24.7921 23.0572 24.948 22.9013 25.2469 22.9013C25.4808 22.9013 25.6107 23.0052 25.7147 23.2261L27.9106 28.0338C28.2225 28.8914 28.7032 29.4241 29.7557 29.4241C30.9122 29.4241 31.4839 28.7615 31.4839 27.7739V21.7578H30.1585V27.722C30.1585 27.9818 29.9896 28.1507 29.7167 28.1507C29.4699 28.1507 29.3269 28.0208 29.236 27.8389L27.04 23.0312C26.7282 22.1736 26.2604 21.6409 25.2079 21.6409C24.0385 21.6409 23.4797 22.3036 23.4797 23.2781V29.3072H24.7921V23.3431V23.3301ZM33.29 21.7578V29.2942H34.6024V21.7578H33.29ZM39.553 21.7578C37.3701 21.7578 36.1487 23.0052 36.1487 25.539C36.1487 28.0598 37.3571 29.2942 39.553 29.2942H40.5795C42.7755 29.2942 43.9839 28.0728 43.9839 25.539C43.9839 23.0052 42.7625 21.7578 40.5795 21.7578H39.553ZM40.5795 23.0702C42.0348 23.0702 42.6585 23.8108 42.6585 25.526C42.6585 27.2542 42.0348 27.9688 40.5795 27.9688H39.553C38.0977 27.9688 37.461 27.2542 37.461 25.539C37.461 23.8108 38.0977 23.0702 39.553 23.0702H40.5795ZM46.8425 23.3301C46.8425 23.0572 46.9985 22.9013 47.2973 22.9013C47.5312 22.9013 47.6611 23.0052 47.7651 23.2261L49.961 28.0338C50.2729 28.8914 50.7537 29.4241 51.8062 29.4241C52.9626 29.4241 53.5343 28.7615 53.5343 27.7739V21.7578H52.209V27.722C52.209 27.9818 52.04 28.1507 51.7672 28.1507C51.5203 28.1507 51.3774 28.0208 51.2864 27.8389L49.0905 23.0312C48.7786 22.1736 48.3108 21.6409 47.2583 21.6409C46.0889 21.6409 45.5302 22.3036 45.5302 23.2781V29.3072H46.8425V23.3431V23.3301Z" fill="black"/>
<path fill-rule="evenodd" clip-rule="evenodd" d="M44.8817 48.9797C33.4212 48.9797 23.8838 40.7807 21.8177 29.9309H20.2715C22.3635 41.6253 32.5896 50.5 44.8817 50.5C58.6941 50.5 69.8817 39.2994 69.8817 25.5C69.8817 11.6876 58.6811 0.5 44.8817 0.5C32.6026 0.5 22.4025 9.34875 20.2845 21.0042H21.8307C23.9357 10.1933 33.4472 2.02027 44.8817 2.02027C57.8495 2.02027 68.3614 12.5322 68.3614 25.5C68.3614 38.4678 57.8495 48.9797 44.8817 48.9797Z" fill="#F26113"/>
</g>
<defs>
<clipPath id="clip0_56_270">
<rect width="69.8811" height="50" fill="white" transform="translate(0 0.5)"/>
</clipPath>
</defs>
</svg>
